STARTFONT 2.1
COMMENT
COMMENT Converted from OpenType font "slkscrb.ttf" by "otf2bdf 3.0".
COMMENT
FONT -FreeType-Silkscreen-Bold-R-Normal--24-240-72-72-P-144-ISO10646-1
SIZE 24 72 72
FONTBOUNDINGBOX 30 30 0 -6
STARTPROPERTIES 19
FOUNDRY "FreeType"
FAMILY_NAME "Silkscreen"
WEIGHT_NAME "Bold"
SLANT "R"
SETWIDTH_NAME "Normal"
ADD_STYLE_NAME ""
PIXEL_SIZE 24
POINT_SIZE 240
RESOLUTION_X 72
RESOLUTION_Y 72
SPACING "P"
AVERAGE_WIDTH 144
CHARSET_REGISTRY "ISO10646"
CHARSET_ENCODING "1"
FONT_ASCENT 24
FONT_DESCENT 6
COPYRIGHT "Copyright (c) Jason Kottke, 2001. All rights reserved."
_OTF_FONTFILE "slkscrb.ttf"
_OTF_PSNAME "Silkscreen-Bold"
ENDPROPERTIES
CHARS 218
STARTCHAR 0020
ENCODING 32
SWIDTH 500 0
DWIDTH 12 0
BBX 0 0 0 0
BITMAP
ENDCHAR
STARTCHAR 0021
ENCODING 33
SWIDTH 500 0
DWIDTH 12 0
BBX 6 15 3 0
BITMAP
FC
FC
FC
FC
FC
FC
FC
FC
FC
00
00
00
FC
FC
FC
ENDCHAR
STARTCHAR 0022
ENCODING 34
SWIDTH 750 0
DWIDTH 18 0
BBX 12 6 3 9
BITMAP
FFF0
FFF0
FFF0
FFF0
FFF0
FFF0
ENDCHAR
STARTCHAR 0023
ENCODING 35
SWIDTH 1000 0
DWIDTH 24 0
BBX 18 15 3 0
BITMAP
1FFE00
1FFE00
1FFE00
FFFFC0
FFFFC0
FFFFC0
1FFE00
1FFE00
1FFE00
FFFFC0
FFFFC0
FFFFC0
1FFE00
1FFE00
1FFE00
ENDCHAR
STARTCHAR 0024
ENCODING 36
SWIDTH 875 0
DWIDTH 21 0
BBX 15 21 3 -3
BITMAP
03F0
03F0
03F0
1FFE
1FFE
1FFE
FC00
FC00
FC00
1FF0
1FF0
1FF0
007E
007E
007E
FFF0
FFF0
FFF0
1F80
1F80
1F80
ENDCHAR
STARTCHAR 0025
ENCODING 37
SWIDTH 1000 0
DWIDTH 24 0
BBX 18 15 3 0
BITMAP
FFFE00
FFFE00
FFFE00
FFFE00
FFFE00
FFFE00
03F000
03F000
03F000
1FFFC0
1FFFC0
1FFFC0
1FFFC0
1FFFC0
1FFFC0
ENDCHAR
STARTCHAR 0026
ENCODING 38
SWIDTH 875 0
DWIDTH 21 0
BBX 15 21 3 -3
BITMAP
03F0
03F0
03F0
1FFE
1FFE
1FFE
FC00
FC00
FC00
1FF0
1FF0
1FF0
FC00
FC00
FC00
1FFE
1FFE
1FFE
03F0
03F0
03F0
ENDCHAR
STARTCHAR 0027
ENCODING 39
SWIDTH 500 0
DWIDTH 12 0
BBX 6 6 3 9
BITMAP
FC
FC
FC
FC
FC
FC
ENDCHAR
STARTCHAR 0028
ENCODING 40
SWIDTH 625 0
DWIDTH 15 0
BBX 9 15 3 0
BITMAP
1F80
1F80
1F80
FC00
FC00
FC00
FC00
FC00
FC00
FC00
FC00
FC00
1F80
1F80
1F80
ENDCHAR
STARTCHAR 0029
ENCODING 41
SWIDTH 625 0
DWIDTH 15 0
BBX 9 15 3 0
BITMAP
FC00
FC00
FC00
1F80
1F80
1F80
1F80
1F80
1F80
1F80
1F80
1F80
FC00
FC00
FC00
ENDCHAR
STARTCHAR 002A
ENCODING 42
SWIDTH 1000 0
DWIDTH 24 0
BBX 18 15 3 0
BITMAP
03F000
03F000
03F000
FFFFC0
FFFFC0
FFFFC0
1FFE00
1FFE00
1FFE00
FFFFC0
FFFFC0
FFFFC0
03F000
03F000
03F000
ENDCHAR
STARTCHAR 002B
ENCODING 43
SWIDTH 1000 0
DWIDTH 24 0
BBX 18 15 3 0
BITMAP
03F000
03F000
03F000
03F000
03F000
03F000
FFFFC0
FFFFC0
FFFFC0
03F000
03F000
03F000
03F000
03F000
03F000
ENDCHAR
STARTCHAR 002C
ENCODING 44
SWIDTH 625 0
DWIDTH 15 0
BBX 9 6 3 -3
BITMAP
1F80
1F80
1F80
FC00
FC00
FC00
ENDCHAR
STARTCHAR 002D
ENCODING 45
SWIDTH 750 0
DWIDTH 18 0
BBX 12 3 3 6
BITMAP
FFF0
FFF0
FFF0
ENDCHAR
STARTCHAR 002E
ENCODING 46
SWIDTH 500 0
DWIDTH 12 0
BBX 6 3 3 0
BITMAP
FC
FC
FC
ENDCHAR
STARTCHAR 002F
ENCODING 47
SWIDTH 750 0
DWIDTH 18 0
BBX 12 15 3 0
BITMAP
03F0
03F0
03F0
03F0
03F0
03F0
1F80
1F80
1F80
FC00
FC00
FC00
FC00
FC00
FC00
ENDCHAR
STARTCHAR 0030
ENCODING 48
SWIDTH 875 0
DWIDTH 21 0
BBX 15 15 3 0
BITMAP
1FF0
1FF0
1FF0
FC7E
FC7E
FC7E
FC7E
FC7E
FC7E
FC7E
FC7E
FC7E
1FF0
1FF0
1FF0
ENDCHAR
STARTCHAR 0031
ENCODING 49
SWIDTH 750 0
DWIDTH 18 0
BBX 12 15 3 0
BITMAP
FF80
FF80
FF80
1F80
1F80
1F80
1F80
1F80
1F80
1F80
1F80
1F80
FFF0
FFF0
FFF0
ENDCHAR
STARTCHAR 0032
ENCODING 50
SWIDTH 875 0
DWIDTH 21 0
BBX 15 15 3 0
BITMAP
FFF0
FFF0
FFF0
007E
007E
007E
1FF0
1FF0
1FF0
FC00
FC00
FC00
FFFE
FFFE
FFFE
ENDCHAR
STARTCHAR 0033
ENCODING 51
SWIDTH 875 0
DWIDTH 21 0
BBX 15 15 3 0
BITMAP
FFF0
FFF0
FFF0
007E
007E
007E
1FF0
1FF0
1FF0
007E
007E
007E
FFF0
FFF0
FFF0
ENDCHAR
STARTCHAR 0034
ENCODING 52
SWIDTH 875 0
DWIDTH 21 0
BBX 15 15 3 0
BITMAP
FFF0
FFF0
FFF0
FFF0
FFF0
FFF0
FFFE
FFFE
FFFE
03F0
03F0
03F0
03F0
03F0
03F0
ENDCHAR
STARTCHAR 0035
ENCODING 53
SWIDTH 875 0
DWIDTH 21 0
BBX 15 15 3 0
BITMAP
FFFE
FFFE
FFFE
FC00
FC00
FC00
FFF0
FFF0
FFF0
007E
007E
007E
FFF0
FFF0
FFF0
ENDCHAR
STARTCHAR 0036
ENCODING 54
SWIDTH 875 0
DWIDTH 21 0
BBX 15 15 3 0
BITMAP
1FF0
1FF0
1FF0
FC00
FC00
FC00
FFF0
FFF0
FFF0
FC7E
FC7E
FC7E
1FF0
1FF0
1FF0
ENDCHAR
STARTCHAR 0037
ENCODING 55
SWIDTH 875 0
DWIDTH 21 0
BBX 15 15 3 0
BITMAP
FFFE
FFFE
FFFE
007E
007E
007E
03F0
03F0
03F0
1F80
1F80
1F80
1F80
1F80
1F80
ENDCHAR
STARTCHAR 0038
ENCODING 56
SWIDTH 875 0
DWIDTH 21 0
BBX 15 15 3 0
BITMAP
1FF0
1FF0
1FF0
FC7E
FC7E
FC7E
1FF0
1FF0
1FF0
FC7E
FC7E
FC7E
1FF0
1FF0
1FF0
ENDCHAR
STARTCHAR 0039
ENCODING 57
SWIDTH 875 0
DWIDTH 21 0
BBX 15 15 3 0
BITMAP
1FF0
1FF0
1FF0
FC7E
FC7E
FC7E
1FFE
1FFE
1FFE
007E
007E
007E
1FF0
1FF0
1FF0
ENDCHAR
STARTCHAR 003A
ENCODING 58
SWIDTH 500 0
DWIDTH 12 0
BBX 6 9 3 3
BITMAP
FC
FC
FC
00
00
00
FC
FC
FC
ENDCHAR
STARTCHAR 003B
ENCODING 59
SWIDTH 625 0
DWIDTH 15 0
BBX 9 12 3 0
BITMAP
1F80
1F80
1F80
0000
0000
0000
1F80
1F80
1F80
FC00
FC00
FC00
ENDCHAR
STARTCHAR 003C
ENCODING 60
SWIDTH 750 0
DWIDTH 18 0
BBX 12 15 3 0
BITMAP
03F0
03F0
03F0
1F80
1F80
1F80
FC00
FC00
FC00
1F80
1F80
1F80
03F0
03F0
03F0
ENDCHAR
STARTCHAR 003D
ENCODING 61
SWIDTH 750 0
DWIDTH 18 0
BBX 12 9 3 3
BITMAP
FFF0
FFF0
FFF0
0000
0000
0000
FFF0
FFF0
FFF0
ENDCHAR
STARTCHAR 003E
ENCODING 62
SWIDTH 750 0
DWIDTH 18 0
BBX 12 15 3 0
BITMAP
FC00
FC00
FC00
1F80
1F80
1F80
03F0
03F0
03F0
1F80
1F80
1F80
FC00
FC00
FC00
ENDCHAR
STARTCHAR 003F
ENCODING 63
SWIDTH 875 0
DWIDTH 21 0
BBX 15 15 3 0
BITMAP
FFF0
FFF0
FFF0
007E
007E
007E
1FF0
1FF0
1FF0
0000
0000
0000
1F80
1F80
1F80
ENDCHAR
STARTCHAR 0040
ENCODING 64
SWIDTH 1000 0
DWIDTH 24 0
BBX 18 15 3 0
BITMAP
1FFE00
1FFE00
1FFE00
FFFFC0
FFFFC0
FFFFC0
FFFE00
FFFE00
FFFE00
FC0000
FC0000
FC0000
1FFE00
1FFE00
1FFE00
ENDCHAR
STARTCHAR 0041
ENCODING 65
SWIDTH 875 0
DWIDTH 21 0
BBX 15 15 3 0
BITMAP
1FF0
1FF0
1FF0
FC7E
FC7E
FC7E
FFFE
FFFE
FFFE
FC7E
FC7E
FC7E
FC7E
FC7E
FC7E
ENDCHAR
STARTCHAR 0042
ENCODING 66
SWIDTH 875 0
DWIDTH 21 0
BBX 15 15 3 0
BITMAP
FFF0
FFF0
FFF0
FC7E
FC7E
FC7E
FFFE
FFFE
FFFE
FC7E
FC7E
FC7E
FFF0
FFF0
FFF0
ENDCHAR
STARTCHAR 0043
ENCODING 67
SWIDTH 875 0
DWIDTH 21 0
BBX 15 15 3 0
BITMAP
1FF0
1FF0
1FF0
FC7E
FC7E
FC7E
FC00
FC00
FC00
FC7E
FC7E
FC7E
1FF0
1FF0
1FF0
ENDCHAR
STARTCHAR 0044
ENCODING 68
SWIDTH 875 0
DWIDTH 21 0
BBX 15 15 3 0
BITMAP
FFF0
FFF0
FFF0
FC7E
FC7E
FC7E
FC7E
FC7E
FC7E
FC7E
FC7E
FC7E
FFF0
FFF0
FFF0
ENDCHAR
STARTCHAR 0045
ENCODING 69
SWIDTH 750 0
DWIDTH 18 0
BBX 12 15 3 0
BITMAP
FFF0
FFF0
FFF0
FC00
FC00
FC00
FFF0
FFF0
FFF0
FC00
FC00
FC00
FFF0
FFF0
FFF0
ENDCHAR
STARTCHAR 0046
ENCODING 70
SWIDTH 750 0
DWIDTH 18 0
BBX 12 15 3 0
BITMAP
FFF0
FFF0
FFF0
FC00
FC00
FC00
FFF0
FFF0
FFF0
FC00
FC00
FC00
FC00
FC00
FC00
ENDCHAR
STARTCHAR 0047
ENCODING 71
SWIDTH 875 0
DWIDTH 21 0
BBX 15 15 3 0
BITMAP
1FFE
1FFE
1FFE
FC00
FC00
FC00
FC7E
FC7E
FC7E
FC7E
FC7E
FC7E
1FF0
1FF0
1FF0
ENDCHAR
STARTCHAR 0048
ENCODING 72
SWIDTH 875 0
DWIDTH 21 0
BBX 15 15 3 0
BITMAP
FC7E
FC7E
FC7E
FC7E
FC7E
FC7E
FFFE
FFFE
FFFE
FC7E
FC7E
FC7E
FC7E
FC7E
FC7E
ENDCHAR
STARTCHAR 0049
ENCODING 73
SWIDTH 500 0
DWIDTH 12 0
BBX 6 15 3 0
BITMAP
FC
FC
FC
FC
FC
FC
FC
FC
FC
FC
FC
FC
FC
FC
FC
ENDCHAR
STARTCHAR 004A
ENCODING 74
SWIDTH 875 0
DWIDTH 21 0
BBX 15 15 3 0
BITMAP
007E
007E
007E
007E
007E
007E
007E
007E
007E
FC7E
FC7E
FC7E
1FF0
1FF0
1FF0
ENDCHAR
STARTCHAR 004B
ENCODING 75
SWIDTH 875 0
DWIDTH 21 0
BBX 15 15 3 0
BITMAP
FC7E
FC7E
FC7E
FFF0
FFF0
FFF0
FF80
FF80
FF80
FFF0
FFF0
FFF0
FC7E
FC7E
FC7E
ENDCHAR
STARTCHAR 004C
ENCODING 76
SWIDTH 750 0
DWIDTH 18 0
BBX 12 15 3 0
BITMAP
FC00
FC00
FC00
FC00
FC00
FC00
FC00
FC00
FC00
FC00
FC00
FC00
FFF0
FFF0
FFF0
ENDCHAR
STARTCHAR 004D
ENCODING 77
SWIDTH 1000 0
DWIDTH 24 0
BBX 18 15 3 0
BITMAP
FC0FC0
FC0FC0
FC0FC0
FFFFC0
FFFFC0
FFFFC0
FFFFC0
FFFFC0
FFFFC0
FC0FC0
FC0FC0
FC0FC0
FC0FC0
FC0FC0
FC0FC0
ENDCHAR
STARTCHAR 004E
ENCODING 78
SWIDTH 1000 0
DWIDTH 24 0
BBX 18 15 3 0
BITMAP
FC0FC0
FC0FC0
FC0FC0
FF8FC0
FF8FC0
FF8FC0
FFFFC0
FFFFC0
FFFFC0
FC7FC0
FC7FC0
FC7FC0
FC0FC0
FC0FC0
FC0FC0
ENDCHAR
STARTCHAR 004F
ENCODING 79
SWIDTH 875 0
DWIDTH 21 0
BBX 15 15 3 0
BITMAP
1FF0
1FF0
1FF0
FC7E
FC7E
FC7E
FC7E
FC7E
FC7E
FC7E
FC7E
FC7E
1FF0
1FF0
1FF0
ENDCHAR
STARTCHAR 0050
ENCODING 80
SWIDTH 875 0
DWIDTH 21 0
BBX 15 15 3 0
BITMAP
FFF0
FFF0
FFF0
FC7E
FC7E
FC7E
FFF0
FFF0
FFF0
FC00
FC00
FC00
FC00
FC00
FC00
ENDCHAR
STARTCHAR 0051
ENCODING 81
SWIDTH 875 0
DWIDTH 21 0
BBX 15 18 3 -3
BITMAP
1FF0
1FF0
1FF0
FC7E
FC7E
FC7E
FC7E
FC7E
FC7E
FC7E
FC7E
FC7E
1FF0
1FF0
1FF0
007E
007E
007E
ENDCHAR
STARTCHAR 0052
ENCODING 82
SWIDTH 875 0
DWIDTH 21 0
BBX 15 15 3 0
BITMAP
FFF0
FFF0
FFF0
FC7E
FC7E
FC7E
FFF0
FFF0
FFF0
FFF0
FFF0
FFF0
FC7E
FC7E
FC7E
ENDCHAR
STARTCHAR 0053
ENCODING 83
SWIDTH 875 0
DWIDTH 21 0
BBX 15 15 3 0
BITMAP
1FFE
1FFE
1FFE
FC00
FC00
FC00
1FF0
1FF0
1FF0
007E
007E
007E
FFF0
FFF0
FFF0
ENDCHAR
STARTCHAR 0054
ENCODING 84
SWIDTH 750 0
DWIDTH 18 0
BBX 12 15 3 0
BITMAP
FFF0
FFF0
FFF0
1F80
1F80
1F80
1F80
1F80
1F80
1F80
1F80
1F80
1F80
1F80
1F80
ENDCHAR
STARTCHAR 0055
ENCODING 85
SWIDTH 875 0
DWIDTH 21 0
BBX 15 15 3 0
BITMAP
FC7E
FC7E
FC7E
FC7E
FC7E
FC7E
FC7E
FC7E
FC7E
FC7E
FC7E
FC7E
1FF0
1FF0
1FF0
ENDCHAR
STARTCHAR 0056
ENCODING 86
SWIDTH 1000 0
DWIDTH 24 0
BBX 18 15 3 0
BITMAP
FC0FC0
FC0FC0
FC0FC0
FC0FC0
FC0FC0
FC0FC0
1FFE00
1FFE00
1FFE00
1FFE00
1FFE00
1FFE00
03F000
03F000
03F000
ENDCHAR
STARTCHAR 0057
ENCODING 87
SWIDTH 1000 0
DWIDTH 24 0
BBX 18 15 3 0
BITMAP
FC0FC0
FC0FC0
FC0FC0
FFFFC0
FFFFC0
FFFFC0
FFFFC0
FFFFC0
FFFFC0
FFFFC0
FFFFC0
FFFFC0
1FFE00
1FFE00
1FFE00
ENDCHAR
STARTCHAR 0058
ENCODING 88
SWIDTH 1000 0
DWIDTH 24 0
BBX 18 15 3 0
BITMAP
FC0FC0
FC0FC0
FC0FC0
1FFE00
1FFE00
1FFE00
03F000
03F000
03F000
1FFE00
1FFE00
1FFE00
FC0FC0
FC0FC0
FC0FC0
ENDCHAR
STARTCHAR 0059
ENCODING 89
SWIDTH 1000 0
DWIDTH 24 0
BBX 18 15 3 0
BITMAP
FC0FC0
FC0FC0
FC0FC0
1FFE00
1FFE00
1FFE00
03F000
03F000
03F000
03F000
03F000
03F000
03F000
03F000
03F000
ENDCHAR
STARTCHAR 005A
ENCODING 90
SWIDTH 750 0
DWIDTH 18 0
BBX 12 15 3 0
BITMAP
FFF0
FFF0
FFF0
03F0
03F0
03F0
1F80
1F80
1F80
FC00
FC00
FC00
FFF0
FFF0
FFF0
ENDCHAR
STARTCHAR 005B
ENCODING 91
SWIDTH 625 0
DWIDTH 15 0
BBX 9 15 3 0
BITMAP
FF80
FF80
FF80
FC00
FC00
FC00
FC00
FC00
FC00
FC00
FC00
FC00
FF80
FF80
FF80
ENDCHAR
STARTCHAR 005C
ENCODING 92
SWIDTH 750 0
DWIDTH 18 0
BBX 12 15 3 0
BITMAP
FC00
FC00
FC00
FC00
FC00
FC00
1F80
1F80
1F80
03F0
03F0
03F0
03F0
03F0
03F0
ENDCHAR
STARTCHAR 005D
ENCODING 93
SWIDTH 625 0
DWIDTH 15 0
BBX 9 15 3 0
BITMAP
FF80
FF80
FF80
1F80
1F80
1F80
1F80
1F80
1F80
1F80
1F80
1F80
FF80
FF80
FF80
ENDCHAR
STARTCHAR 005E
ENCODING 94
SWIDTH 750 0
DWIDTH 18 0
BBX 12 6 3 12
BITMAP
1F80
1F80
1F80
FFF0
FFF0
FFF0
ENDCHAR
STARTCHAR 005F
ENCODING 95
SWIDTH 875 0
DWIDTH 21 0
BBX 15 3 3 -3
BITMAP
FFFE
FFFE
FFFE
ENDCHAR
STARTCHAR 0060
ENCODING 96
SWIDTH 625 0
DWIDTH 15 0
BBX 9 6 3 9
BITMAP
FC00
FC00
FC00
1F80
1F80
1F80
ENDCHAR
STARTCHAR 0061
ENCODING 97
SWIDTH 875 0
DWIDTH 21 0
BBX 15 15 3 0
BITMAP
1FF0
1FF0
1FF0
FC7E
FC7E
FC7E
FFFE
FFFE
FFFE
FC7E
FC7E
FC7E
FC7E
FC7E
FC7E
ENDCHAR
STARTCHAR 0062
ENCODING 98
SWIDTH 875 0
DWIDTH 21 0
BBX 15 15 3 0
BITMAP
FFF0
FFF0
FFF0
FC7E
FC7E
FC7E
FFFE
FFFE
FFFE
FC7E
FC7E
FC7E
FFF0
FFF0
FFF0
ENDCHAR
STARTCHAR 0063
ENCODING 99
SWIDTH 875 0
DWIDTH 21 0
BBX 15 15 3 0
BITMAP
1FF0
1FF0
1FF0
FC7E
FC7E
FC7E
FC00
FC00
FC00
FC7E
FC7E
FC7E
1FF0
1FF0
1FF0
ENDCHAR
STARTCHAR 0064
ENCODING 100
SWIDTH 875 0
DWIDTH 21 0
BBX 15 15 3 0
BITMAP
FFF0
FFF0
FFF0
FC7E
FC7E
FC7E
FC7E
FC7E
FC7E
FC7E
FC7E
FC7E
FFF0
FFF0
FFF0
ENDCHAR
STARTCHAR 0065
ENCODING 101
SWIDTH 750 0
DWIDTH 18 0
BBX 12 15 3 0
BITMAP
FFF0
FFF0
FFF0
FC00
FC00
FC00
FFF0
FFF0
FFF0
FC00
FC00
FC00
FFF0
FFF0
FFF0
ENDCHAR
STARTCHAR 0066
ENCODING 102
SWIDTH 750 0
DWIDTH 18 0
BBX 12 15 3 0
BITMAP
FFF0
FFF0
FFF0
FC00
FC00
FC00
FFF0
FFF0
FFF0
FC00
FC00
FC00
FC00
FC00
FC00
ENDCHAR
STARTCHAR 0067
ENCODING 103
SWIDTH 875 0
DWIDTH 21 0
BBX 15 15 3 0
BITMAP
1FFE
1FFE
1FFE
FC00
FC00
FC00
FC7E
FC7E
FC7E
FC7E
FC7E
FC7E
1FF0
1FF0
1FF0
ENDCHAR
STARTCHAR 0068
ENCODING 104
SWIDTH 875 0
DWIDTH 21 0
BBX 15 15 3 0
BITMAP
FC7E
FC7E
FC7E
FC7E
FC7E
FC7E
FFFE
FFFE
FFFE
FC7E
FC7E
FC7E
FC7E
FC7E
FC7E
ENDCHAR
STARTCHAR 0069
ENCODING 105
SWIDTH 500 0
DWIDTH 12 0
BBX 6 15 3 0
BITMAP
FC
FC
FC
FC
FC
FC
FC
FC
FC
FC
FC
FC
FC
FC
FC
ENDCHAR
STARTCHAR 006A
ENCODING 106
SWIDTH 875 0
DWIDTH 21 0
BBX 15 15 3 0
BITMAP
007E
007E
007E
007E
007E
007E
007E
007E
007E
FC7E
FC7E
FC7E
1FF0
1FF0
1FF0
ENDCHAR
STARTCHAR 006B
ENCODING 107
SWIDTH 875 0
DWIDTH 21 0
BBX 15 15 3 0
BITMAP
FC7E
FC7E
FC7E
FFF0
FFF0
FFF0
FF80
FF80
FF80
FFF0
FFF0
FFF0
FC7E
FC7E
FC7E
ENDCHAR
STARTCHAR 006C
ENCODING 108
SWIDTH 750 0
DWIDTH 18 0
BBX 12 15 3 0
BITMAP
FC00
FC00
FC00
FC00
FC00
FC00
FC00
FC00
FC00
FC00
FC00
FC00
FFF0
FFF0
FFF0
ENDCHAR
STARTCHAR 006D
ENCODING 109
SWIDTH 1000 0
DWIDTH 24 0
BBX 18 15 3 0
BITMAP
FC0FC0
FC0FC0
FC0FC0
FFFFC0
FFFFC0
FFFFC0
FFFFC0
FFFFC0
FFFFC0
FC0FC0
FC0FC0
FC0FC0
FC0FC0
FC0FC0
FC0FC0
ENDCHAR
STARTCHAR 006E
ENCODING 110
SWIDTH 1000 0
DWIDTH 24 0
BBX 18 15 3 0
BITMAP
FC0FC0
FC0FC0
FC0FC0
FF8FC0
FF8FC0
FF8FC0
FFFFC0
FFFFC0
FFFFC0
FC7FC0
FC7FC0
FC7FC0
FC0FC0
FC0FC0
FC0FC0
ENDCHAR
STARTCHAR 006F
ENCODING 111
SWIDTH 875 0
DWIDTH 21 0
BBX 15 15 3 0
BITMAP
1FF0
1FF0
1FF0
FC7E
FC7E
FC7E
FC7E
FC7E
FC7E
FC7E
FC7E
FC7E
1FF0
1FF0
1FF0
ENDCHAR
STARTCHAR 0070
ENCODING 112
SWIDTH 875 0
DWIDTH 21 0
BBX 15 15 3 0
BITMAP
FFF0
FFF0
FFF0
FC7E
FC7E
FC7E
FFF0
FFF0
FFF0
FC00
FC00
FC00
FC00
FC00
FC00
ENDCHAR
STARTCHAR 0071
ENCODING 113
SWIDTH 875 0
DWIDTH 21 0
BBX 15 18 3 -3
BITMAP
1FF0
1FF0
1FF0
FC7E
FC7E
FC7E
FC7E
FC7E
FC7E
FC7E
FC7E
FC7E
1FF0
1FF0
1FF0
007E
007E
007E
ENDCHAR
STARTCHAR 0072
ENCODING 114
SWIDTH 875 0
DWIDTH 21 0
BBX 15 15 3 0
BITMAP
FFF0
FFF0
FFF0
FC7E
FC7E
FC7E
FFF0
FFF0
FFF0
FFF0
FFF0
FFF0
FC7E
FC7E
FC7E
ENDCHAR
STARTCHAR 0073
ENCODING 115
SWIDTH 875 0
DWIDTH 21 0
BBX 15 15 3 0
BITMAP
1FFE
1FFE
1FFE
FC00
FC00
FC00
1FF0
1FF0
1FF0
007E
007E
007E
FFF0
FFF0
FFF0
ENDCHAR
STARTCHAR 0074
ENCODING 116
SWIDTH 750 0
DWIDTH 18 0
BBX 12 15 3 0
BITMAP
FFF0
FFF0
FFF0
1F80
1F80
1F80
1F80
1F80
1F80
1F80
1F80
1F80
1F80
1F80
1F80
ENDCHAR
STARTCHAR 0075
ENCODING 117
SWIDTH 875 0
DWIDTH 21 0
BBX 15 15 3 0
BITMAP
FC7E
FC7E
FC7E
FC7E
FC7E
FC7E
FC7E
FC7E
FC7E
FC7E
FC7E
FC7E
1FF0
1FF0
1FF0
ENDCHAR
STARTCHAR 0076
ENCODING 118
SWIDTH 1000 0
DWIDTH 24 0
BBX 18 15 3 0
BITMAP
FC0FC0
FC0FC0
FC0FC0
FC0FC0
FC0FC0
FC0FC0
1FFE00
1FFE00
1FFE00
1FFE00
1FFE00
1FFE00
03F000
03F000
03F000
ENDCHAR
STARTCHAR 0077
ENCODING 119
SWIDTH 1000 0
DWIDTH 24 0
BBX 18 15 3 0
BITMAP
FC0FC0
FC0FC0
FC0FC0
FFFFC0
FFFFC0
FFFFC0
FFFFC0
FFFFC0
FFFFC0
FFFFC0
FFFFC0
FFFFC0
1FFE00
1FFE00
1FFE00
ENDCHAR
STARTCHAR 0078
ENCODING 120
SWIDTH 1000 0
DWIDTH 24 0
BBX 18 15 3 0
BITMAP
FC0FC0
FC0FC0
FC0FC0
1FFE00
1FFE00
1FFE00
03F000
03F000
03F000
1FFE00
1FFE00
1FFE00
FC0FC0
FC0FC0
FC0FC0
ENDCHAR
STARTCHAR 0079
ENCODING 121
SWIDTH 1000 0
DWIDTH 24 0
BBX 18 15 3 0
BITMAP
FC0FC0
FC0FC0
FC0FC0
1FFE00
1FFE00
1FFE00
03F000
03F000
03F000
03F000
03F000
03F000
03F000
03F000
03F000
ENDCHAR
STARTCHAR 007A
ENCODING 122
SWIDTH 750 0
DWIDTH 18 0
BBX 12 15 3 0
BITMAP
FFF0
FFF0
FFF0
03F0
03F0
03F0
1F80
1F80
1F80
FC00
FC00
FC00
FFF0
FFF0
FFF0
ENDCHAR
STARTCHAR 007B
ENCODING 123
SWIDTH 750 0
DWIDTH 18 0
BBX 12 15 3 0
BITMAP
1FF0
1FF0
1FF0
1F80
1F80
1F80
FC00
FC00
FC00
1F80
1F80
1F80
1FF0
1FF0
1FF0
ENDCHAR
STARTCHAR 007C
ENCODING 124
SWIDTH 500 0
DWIDTH 12 0
BBX 6 21 3 -3
BITMAP
FC
FC
FC
FC
FC
FC
FC
FC
FC
FC
FC
FC
FC
FC
FC
FC
FC
FC
FC
FC
FC
ENDCHAR
STARTCHAR 007D
ENCODING 125
SWIDTH 750 0
DWIDTH 18 0
BBX 12 15 3 0
BITMAP
FF80
FF80
FF80
1F80
1F80
1F80
03F0
03F0
03F0
1F80
1F80
1F80
FF80
FF80
FF80
ENDCHAR
STARTCHAR 007E
ENCODING 126
SWIDTH 875 0
DWIDTH 21 0
BBX 15 6 3 9
BITMAP
1FFE
1FFE
1FFE
FFF0
FFF0
FFF0
ENDCHAR
STARTCHAR 00A0
ENCODING 160
SWIDTH 500 0
DWIDTH 12 0
BBX 0 0 0 0
BITMAP
ENDCHAR
STARTCHAR 00A1
ENCODING 161
SWIDTH 500 0
DWIDTH 12 0
BBX 6 15 3 0
BITMAP
FC
FC
FC
00
00
00
FC
FC
FC
FC
FC
FC
FC
FC
FC
ENDCHAR
STARTCHAR 00A2
ENCODING 162
SWIDTH 750 0
DWIDTH 18 0
BBX 12 15 3 0
BITMAP
1F80
1F80
1F80
FFF0
FFF0
FFF0
FC00
FC00
FC00
FFF0
FFF0
FFF0
1F80
1F80
1F80
ENDCHAR
STARTCHAR 00A3
ENCODING 163
SWIDTH 875 0
DWIDTH 21 0
BBX 15 15 3 0
BITMAP
03FE
03FE
03FE
03F0
03F0
03F0
FFF0
FFF0
FFF0
1F80
1F80
1F80
FFFE
FFFE
FFFE
ENDCHAR
STARTCHAR 00A4
ENCODING 164
SWIDTH 1000 0
DWIDTH 24 0
BBX 18 15 3 0
BITMAP
FFFFC0
FFFFC0
FFFFC0
1FFE00
1FFE00
1FFE00
1FFE00
1FFE00
1FFE00
1FFE00
1FFE00
1FFE00
FFFFC0
FFFFC0
FFFFC0
ENDCHAR
STARTCHAR 00A5
ENCODING 165
SWIDTH 1000 0
DWIDTH 24 0
BBX 18 15 3 0
BITMAP
FC0FC0
FC0FC0
FC0FC0
1FFE00
1FFE00
1FFE00
03F000
03F000
03F000
1FFE00
1FFE00
1FFE00
03F000
03F000
03F000
ENDCHAR
STARTCHAR 00A6
ENCODING 166
SWIDTH 500 0
DWIDTH 12 0
BBX 6 15 3 0
BITMAP
FC
FC
FC
FC
FC
FC
00
00
00
FC
FC
FC
FC
FC
FC
ENDCHAR
STARTCHAR 00A7
ENCODING 167
SWIDTH 875 0
DWIDTH 21 0
BBX 15 21 3 -3
BITMAP
1FF0
1FF0
1FF0
FC00
FC00
FC00
1FF0
1FF0
1FF0
FC7E
FC7E
FC7E
1FF0
1FF0
1FF0
007E
007E
007E
1FF0
1FF0
1FF0
ENDCHAR
STARTCHAR 00A8
ENCODING 168
SWIDTH 750 0
DWIDTH 18 0
BBX 12 3 3 12
BITMAP
FFF0
FFF0
FFF0
ENDCHAR
STARTCHAR 00A9
ENCODING 169
SWIDTH 1250 0
DWIDTH 30 0
BBX 24 21 3 -3
BITMAP
1FFFF8
1FFFF8
1FFFF8
FC003F
FC003F
FC003F
FFFFFF
FFFFFF
FFFFFF
FFF03F
FFF03F
FFF03F
FFFFFF
FFFFFF
FFFFFF
FC003F
FC003F
FC003F
1FFFF8
1FFFF8
1FFFF8
ENDCHAR
STARTCHAR 00AA
ENCODING 170
SWIDTH 750 0
DWIDTH 18 0
BBX 12 9 3 6
BITMAP
1F80
1F80
1F80
FFF0
FFF0
FFF0
1FF0
1FF0
1FF0
ENDCHAR
STARTCHAR 00AB
ENCODING 171
SWIDTH 1000 0
DWIDTH 24 0
BBX 18 9 3 3
BITMAP
1F8FC0
1F8FC0
1F8FC0
FC7E00
FC7E00
FC7E00
1F8FC0
1F8FC0
1F8FC0
ENDCHAR
STARTCHAR 00AC
ENCODING 172
SWIDTH 875 0
DWIDTH 21 0
BBX 15 6 3 3
BITMAP
FFFE
FFFE
FFFE
007E
007E
007E
ENDCHAR
STARTCHAR 00AD
ENCODING 173
SWIDTH 750 0
DWIDTH 18 0
BBX 12 3 3 6
BITMAP
FFF0
FFF0
FFF0
ENDCHAR
STARTCHAR 00AE
ENCODING 174
SWIDTH 1250 0
DWIDTH 30 0
BBX 24 21 3 -3
BITMAP
1FFFF8
1FFFF8
1FFFF8
FC003F
FC003F
FC003F
FC7FFF
FC7FFF
FC7FFF
FFF03F
FFF03F
FFF03F
FFF03F
FFF03F
FFF03F
FC003F
FC003F
FC003F
1FFFF8
1FFFF8
1FFFF8
ENDCHAR
STARTCHAR 00AF
ENCODING 175
SWIDTH 875 0
DWIDTH 21 0
BBX 15 3 3 12
BITMAP
FFFE
FFFE
FFFE
ENDCHAR
STARTCHAR 00B0
ENCODING 176
SWIDTH 750 0
DWIDTH 18 0
BBX 12 9 3 6
BITMAP
1F80
1F80
1F80
FFF0
FFF0
FFF0
1F80
1F80
1F80
ENDCHAR
STARTCHAR 00B1
ENCODING 177
SWIDTH 1000 0
DWIDTH 24 0
BBX 18 18 3 -3
BITMAP
03F000
03F000
03F000
03F000
03F000
03F000
FFFFC0
FFFFC0
FFFFC0
03F000
03F000
03F000
03F000
03F000
03F000
FFFFC0
FFFFC0
FFFFC0
ENDCHAR
STARTCHAR 00B2
ENCODING 178
SWIDTH 750 0
DWIDTH 18 0
BBX 12 12 3 3
BITMAP
FF80
FF80
FF80
03F0
03F0
03F0
1F80
1F80
1F80
FFF0
FFF0
FFF0
ENDCHAR
STARTCHAR 00B3
ENCODING 179
SWIDTH 750 0
DWIDTH 18 0
BBX 12 12 3 3
BITMAP
FF80
FF80
FF80
1FF0
1FF0
1FF0
03F0
03F0
03F0
FFF0
FFF0
FFF0
ENDCHAR
STARTCHAR 00B4
ENCODING 180
SWIDTH 625 0
DWIDTH 15 0
BBX 9 6 3 9
BITMAP
1F80
1F80
1F80
FC00
FC00
FC00
ENDCHAR
STARTCHAR 00B5
ENCODING 181
SWIDTH 875 0
DWIDTH 21 0
BBX 15 18 3 -3
BITMAP
FC7E
FC7E
FC7E
FC7E
FC7E
FC7E
FC7E
FC7E
FC7E
FC7E
FC7E
FC7E
FFF0
FFF0
FFF0
FC00
FC00
FC00
ENDCHAR
STARTCHAR 00B6
ENCODING 182
SWIDTH 1000 0
DWIDTH 24 0
BBX 18 15 3 0
BITMAP
1FFFC0
1FFFC0
1FFFC0
FFFFC0
FFFFC0
FFFFC0
1FFFC0
1FFFC0
1FFFC0
03FFC0
03FFC0
03FFC0
03FFC0
03FFC0
03FFC0
ENDCHAR
STARTCHAR 00B7
ENCODING 183
SWIDTH 500 0
DWIDTH 12 0
BBX 6 3 3 6
BITMAP
FC
FC
FC
ENDCHAR
STARTCHAR 00B8
ENCODING 184
SWIDTH 625 0
DWIDTH 15 0
BBX 9 6 3 -3
BITMAP
1F80
1F80
1F80
FC00
FC00
FC00
ENDCHAR
STARTCHAR 00B9
ENCODING 185
SWIDTH 625 0
DWIDTH 15 0
BBX 9 12 3 3
BITMAP
FF80
FF80
FF80
1F80
1F80
1F80
1F80
1F80
1F80
1F80
1F80
1F80
ENDCHAR
STARTCHAR 00BA
ENCODING 186
SWIDTH 750 0
DWIDTH 18 0
BBX 12 9 3 6
BITMAP
1F80
1F80
1F80
FFF0
FFF0
FFF0
1F80
1F80
1F80
ENDCHAR
STARTCHAR 00BB
ENCODING 187
SWIDTH 1000 0
DWIDTH 24 0
BBX 18 9 3 3
BITMAP
FC7E00
FC7E00
FC7E00
1F8FC0
1F8FC0
1F8FC0
FC7E00
FC7E00
FC7E00
ENDCHAR
STARTCHAR 00BC
ENCODING 188
SWIDTH 1250 0
DWIDTH 30 0
BBX 24 15 3 0
BITMAP
FC7E00
FC7E00
FC7E00
FC7E00
FC7E00
FC7E00
FFFFFF
FFFFFF
FFFFFF
1F8FFF
1F8FFF
1F8FFF
1F803F
1F803F
1F803F
ENDCHAR
STARTCHAR 00BD
ENCODING 189
SWIDTH 1250 0
DWIDTH 30 0
BBX 24 15 3 0
BITMAP
FC7E00
FC7E00
FC7E00
FC7FF8
FC7FF8
FC7FF8
FFF03F
FFF03F
FFF03F
1F81F8
1F81F8
1F81F8
1F8FFF
1F8FFF
1F8FFF
ENDCHAR
STARTCHAR 00BE
ENCODING 190
SWIDTH 1375 0
DWIDTH 33 0
BBX 27 15 3 0
BITMAP
FF8FC000
FF8FC000
FF8FC000
1FFFC000
1FFFC000
1FFFC000
03FFFFE0
03FFFFE0
03FFFFE0
FFF1FFE0
FFF1FFE0
FFF1FFE0
03F007E0
03F007E0
03F007E0
ENDCHAR
STARTCHAR 00BF
ENCODING 191
SWIDTH 875 0
DWIDTH 21 0
BBX 15 15 3 0
BITMAP
03F0
03F0
03F0
0000
0000
0000
1FF0
1FF0
1FF0
FC00
FC00
FC00
1FFE
1FFE
1FFE
ENDCHAR
STARTCHAR 00C0
ENCODING 192
SWIDTH 875 0
DWIDTH 21 0
BBX 15 24 3 0
BITMAP
1F80
1F80
1F80
03F0
03F0
03F0
0000
0000
0000
1FF0
1FF0
1FF0
FC7E
FC7E
FC7E
FFFE
FFFE
FFFE
FC7E
FC7E
FC7E
FC7E
FC7E
FC7E
ENDCHAR
STARTCHAR 00C1
ENCODING 193
SWIDTH 875 0
DWIDTH 21 0
BBX 15 24 3 0
BITMAP
03F0
03F0
03F0
1F80
1F80
1F80
0000
0000
0000
1FF0
1FF0
1FF0
FC7E
FC7E
FC7E
FFFE
FFFE
FFFE
FC7E
FC7E
FC7E
FC7E
FC7E
FC7E
ENDCHAR
STARTCHAR 00C2
ENCODING 194
SWIDTH 875 0
DWIDTH 21 0
BBX 15 24 3 0
BITMAP
1FF0
1FF0
1FF0
FC7E
FC7E
FC7E
0000
0000
0000
1FF0
1FF0
1FF0
FC7E
FC7E
FC7E
FFFE
FFFE
FFFE
FC7E
FC7E
FC7E
FC7E
FC7E
FC7E
ENDCHAR
STARTCHAR 00C3
ENCODING 195
SWIDTH 875 0
DWIDTH 21 0
BBX 15 24 3 0
BITMAP
1FFE
1FFE
1FFE
FFF0
FFF0
FFF0
0000
0000
0000
1FF0
1FF0
1FF0
FC7E
FC7E
FC7E
FFFE
FFFE
FFFE
FC7E
FC7E
FC7E
FC7E
FC7E
FC7E
ENDCHAR
STARTCHAR 00C4
ENCODING 196
SWIDTH 875 0
DWIDTH 21 0
BBX 15 21 3 0
BITMAP
FC7E
FC7E
FC7E
0000
0000
0000
1FF0
1FF0
1FF0
FC7E
FC7E
FC7E
FFFE
FFFE
FFFE
FC7E
FC7E
FC7E
FC7E
FC7E
FC7E
ENDCHAR
STARTCHAR 00C5
ENCODING 197
SWIDTH 875 0
DWIDTH 21 0
BBX 15 24 3 0
BITMAP
FC7E
FC7E
FC7E
1FF0
1FF0
1FF0
0000
0000
0000
1FF0
1FF0
1FF0
FC7E
FC7E
FC7E
FFFE
FFFE
FFFE
FC7E
FC7E
FC7E
FC7E
FC7E
FC7E
ENDCHAR
STARTCHAR 00C6
ENCODING 198
SWIDTH 1000 0
DWIDTH 24 0
BBX 18 15 3 0
BITMAP
1FFFC0
1FFFC0
1FFFC0
FFF000
FFF000
FFF000
FFFFC0
FFFFC0
FFFFC0
FFF000
FFF000
FFF000
FFFFC0
FFFFC0
FFFFC0
ENDCHAR
STARTCHAR 00C7
ENCODING 199
SWIDTH 875 0
DWIDTH 21 0
BBX 15 21 3 -6
BITMAP
1FF0
1FF0
1FF0
FC7E
FC7E
FC7E
FC00
FC00
FC00
FC7E
FC7E
FC7E
1FF0
1FF0
1FF0
1F80
1F80
1F80
FC00
FC00
FC00
ENDCHAR
STARTCHAR 00C8
ENCODING 200
SWIDTH 750 0
DWIDTH 18 0
BBX 12 24 3 0
BITMAP
FC00
FC00
FC00
1F80
1F80
1F80
0000
0000
0000
FFF0
FFF0
FFF0
FC00
FC00
FC00
FFF0
FFF0
FFF0
FC00
FC00
FC00
FFF0
FFF0
FFF0
ENDCHAR
STARTCHAR 00C9
ENCODING 201
SWIDTH 750 0
DWIDTH 18 0
BBX 12 24 3 0
BITMAP
03F0
03F0
03F0
1F80
1F80
1F80
0000
0000
0000
FFF0
FFF0
FFF0
FC00
FC00
FC00
FFF0
FFF0
FFF0
FC00
FC00
FC00
FFF0
FFF0
FFF0
ENDCHAR
STARTCHAR 00CA
ENCODING 202
SWIDTH 750 0
DWIDTH 18 0
BBX 12 24 3 0
BITMAP
1F80
1F80
1F80
FFF0
FFF0
FFF0
0000
0000
0000
FFF0
FFF0
FFF0
FC00
FC00
FC00
FFF0
FFF0
FFF0
FC00
FC00
FC00
FFF0
FFF0
FFF0
ENDCHAR
STARTCHAR 00CB
ENCODING 203
SWIDTH 750 0
DWIDTH 18 0
BBX 12 21 3 0
BITMAP
FFF0
FFF0
FFF0
0000
0000
0000
FFF0
FFF0
FFF0
FC00
FC00
FC00
FFF0
FFF0
FFF0
FC00
FC00
FC00
FFF0
FFF0
FFF0
ENDCHAR
STARTCHAR 00CC
ENCODING 204
SWIDTH 500 0
DWIDTH 12 0
BBX 9 24 0 0
BITMAP
FC00
FC00
FC00
1F80
1F80
1F80
0000
0000
0000
1F80
1F80
1F80
1F80
1F80
1F80
1F80
1F80
1F80
1F80
1F80
1F80
1F80
1F80
1F80
ENDCHAR
STARTCHAR 00CD
ENCODING 205
SWIDTH 500 0
DWIDTH 12 0
BBX 9 24 3 0
BITMAP
1F80
1F80
1F80
FC00
FC00
FC00
0000
0000
0000
FC00
FC00
FC00
FC00
FC00
FC00
FC00
FC00
FC00
FC00
FC00
FC00
FC00
FC00
FC00
ENDCHAR
STARTCHAR 00CE
ENCODING 206
SWIDTH 500 0
DWIDTH 12 0
BBX 12 24 0 0
BITMAP
1F80
1F80
1F80
FFF0
FFF0
FFF0
0000
0000
0000
1F80
1F80
1F80
1F80
1F80
1F80
1F80
1F80
1F80
1F80
1F80
1F80
1F80
1F80
1F80
ENDCHAR
STARTCHAR 00CF
ENCODING 207
SWIDTH 500 0
DWIDTH 12 0
BBX 12 21 0 0
BITMAP
FFF0
FFF0
FFF0
0000
0000
0000
1F80
1F80
1F80
1F80
1F80
1F80
1F80
1F80
1F80
1F80
1F80
1F80
1F80
1F80
1F80
ENDCHAR
STARTCHAR 00D0
ENCODING 208
SWIDTH 1000 0
DWIDTH 24 0
BBX 18 15 3 0
BITMAP
1FFE00
1FFE00
1FFE00
1F8FC0
1F8FC0
1F8FC0
FFFFC0
FFFFC0
FFFFC0
1F8FC0
1F8FC0
1F8FC0
1FFE00
1FFE00
1FFE00
ENDCHAR
STARTCHAR 00D1
ENCODING 209
SWIDTH 1000 0
DWIDTH 24 0
BBX 18 24 3 0
BITMAP
03FFC0
03FFC0
03FFC0
1FFE00
1FFE00
1FFE00
000000
000000
000000
FC0FC0
FC0FC0
FC0FC0
FF8FC0
FF8FC0
FF8FC0
FFFFC0
FFFFC0
FFFFC0
FC7FC0
FC7FC0
FC7FC0
FC0FC0
FC0FC0
FC0FC0
ENDCHAR
STARTCHAR 00D2
ENCODING 210
SWIDTH 875 0
DWIDTH 21 0
BBX 15 24 3 0
BITMAP
1F80
1F80
1F80
03F0
03F0
03F0
0000
0000
0000
1FF0
1FF0
1FF0
FC7E
FC7E
FC7E
FC7E
FC7E
FC7E
FC7E
FC7E
FC7E
1FF0
1FF0
1FF0
ENDCHAR
STARTCHAR 00D3
ENCODING 211
SWIDTH 875 0
DWIDTH 21 0
BBX 15 24 3 0
BITMAP
03F0
03F0
03F0
1F80
1F80
1F80
0000
0000
0000
1FF0
1FF0
1FF0
FC7E
FC7E
FC7E
FC7E
FC7E
FC7E
FC7E
FC7E
FC7E
1FF0
1FF0
1FF0
ENDCHAR
STARTCHAR 00D4
ENCODING 212
SWIDTH 875 0
DWIDTH 21 0
BBX 15 24 3 0
BITMAP
1FF0
1FF0
1FF0
FC7E
FC7E
FC7E
0000
0000
0000
1FF0
1FF0
1FF0
FC7E
FC7E
FC7E
FC7E
FC7E
FC7E
FC7E
FC7E
FC7E
1FF0
1FF0
1FF0
ENDCHAR
STARTCHAR 00D5
ENCODING 213
SWIDTH 875 0
DWIDTH 21 0
BBX 15 24 3 0
BITMAP
1FFE
1FFE
1FFE
FFF0
FFF0
FFF0
0000
0000
0000
1FF0
1FF0
1FF0
FC7E
FC7E
FC7E
FC7E
FC7E
FC7E
FC7E
FC7E
FC7E
1FF0
1FF0
1FF0
ENDCHAR
STARTCHAR 00D6
ENCODING 214
SWIDTH 875 0
DWIDTH 21 0
BBX 15 21 3 0
BITMAP
FC7E
FC7E
FC7E
0000
0000
0000
1FF0
1FF0
1FF0
FC7E
FC7E
FC7E
FC7E
FC7E
FC7E
FC7E
FC7E
FC7E
1FF0
1FF0
1FF0
ENDCHAR
STARTCHAR 00D7
ENCODING 215
SWIDTH 750 0
DWIDTH 18 0
BBX 12 9 3 3
BITMAP
FFF0
FFF0
FFF0
1F80
1F80
1F80
FFF0
FFF0
FFF0
ENDCHAR
STARTCHAR 00D8
ENCODING 216
SWIDTH 1000 0
DWIDTH 24 0
BBX 18 15 3 0
BITMAP
1FFE00
1FFE00
1FFE00
FC7FC0
FC7FC0
FC7FC0
FFFFC0
FFFFC0
FFFFC0
FF8FC0
FF8FC0
FF8FC0
1FFE00
1FFE00
1FFE00
ENDCHAR
STARTCHAR 00D9
ENCODING 217
SWIDTH 875 0
DWIDTH 21 0
BBX 15 24 3 0
BITMAP
1F80
1F80
1F80
03F0
03F0
03F0
0000
0000
0000
FC7E
FC7E
FC7E
FC7E
FC7E
FC7E
FC7E
FC7E
FC7E
FC7E
FC7E
FC7E
1FF0
1FF0
1FF0
ENDCHAR
STARTCHAR 00DA
ENCODING 218
SWIDTH 875 0
DWIDTH 21 0
BBX 15 24 3 0
BITMAP
03F0
03F0
03F0
1F80
1F80
1F80
0000
0000
0000
FC7E
FC7E
FC7E
FC7E
FC7E
FC7E
FC7E
FC7E
FC7E
FC7E
FC7E
FC7E
1FF0
1FF0
1FF0
ENDCHAR
STARTCHAR 00DB
ENCODING 219
SWIDTH 875 0
DWIDTH 21 0
BBX 15 24 3 0
BITMAP
1FF0
1FF0
1FF0
FC7E
FC7E
FC7E
0000
0000
0000
FC7E
FC7E
FC7E
FC7E
FC7E
FC7E
FC7E
FC7E
FC7E
FC7E
FC7E
FC7E
1FF0
1FF0
1FF0
ENDCHAR
STARTCHAR 00DC
ENCODING 220
SWIDTH 875 0
DWIDTH 21 0
BBX 15 21 3 0
BITMAP
FC7E
FC7E
FC7E
0000
0000
0000
FC7E
FC7E
FC7E
FC7E
FC7E
FC7E
FC7E
FC7E
FC7E
FC7E
FC7E
FC7E
1FF0
1FF0
1FF0
ENDCHAR
STARTCHAR 00DD
ENCODING 221
SWIDTH 1000 0
DWIDTH 24 0
BBX 18 24 3 0
BITMAP
007E00
007E00
007E00
03F000
03F000
03F000
000000
000000
000000
FC0FC0
FC0FC0
FC0FC0
1FFE00
1FFE00
1FFE00
03F000
03F000
03F000
03F000
03F000
03F000
03F000
03F000
03F000
ENDCHAR
STARTCHAR 00DE
ENCODING 222
SWIDTH 750 0
DWIDTH 18 0
BBX 12 15 3 0
BITMAP
FC00
FC00
FC00
FF80
FF80
FF80
FFF0
FFF0
FFF0
FF80
FF80
FF80
FC00
FC00
FC00
ENDCHAR
STARTCHAR 00DF
ENCODING 223
SWIDTH 875 0
DWIDTH 21 0
BBX 15 15 3 0
BITMAP
1FF0
1FF0
1FF0
FC7E
FC7E
FC7E
FFF0
FFF0
FFF0
FC7E
FC7E
FC7E
FFF0
FFF0
FFF0
ENDCHAR
STARTCHAR 00E0
ENCODING 224
SWIDTH 875 0
DWIDTH 21 0
BBX 15 24 3 0
BITMAP
1F80
1F80
1F80
03F0
03F0
03F0
0000
0000
0000
1FF0
1FF0
1FF0
FC7E
FC7E
FC7E
FFFE
FFFE
FFFE
FC7E
FC7E
FC7E
FC7E
FC7E
FC7E
ENDCHAR
STARTCHAR 00E1
ENCODING 225
SWIDTH 875 0
DWIDTH 21 0
BBX 15 24 3 0
BITMAP
03F0
03F0
03F0
1F80
1F80
1F80
0000
0000
0000
1FF0
1FF0
1FF0
FC7E
FC7E
FC7E
FFFE
FFFE
FFFE
FC7E
FC7E
FC7E
FC7E
FC7E
FC7E
ENDCHAR
STARTCHAR 00E2
ENCODING 226
SWIDTH 875 0
DWIDTH 21 0
BBX 15 24 3 0
BITMAP
1FF0
1FF0
1FF0
FC7E
FC7E
FC7E
0000
0000
0000
1FF0
1FF0
1FF0
FC7E
FC7E
FC7E
FFFE
FFFE
FFFE
FC7E
FC7E
FC7E
FC7E
FC7E
FC7E
ENDCHAR
STARTCHAR 00E3
ENCODING 227
SWIDTH 875 0
DWIDTH 21 0
BBX 15 24 3 0
BITMAP
1FFE
1FFE
1FFE
FFF0
FFF0
FFF0
0000
0000
0000
1FF0
1FF0
1FF0
FC7E
FC7E
FC7E
FFFE
FFFE
FFFE
FC7E
FC7E
FC7E
FC7E
FC7E
FC7E
ENDCHAR
STARTCHAR 00E4
ENCODING 228
SWIDTH 875 0
DWIDTH 21 0
BBX 15 21 3 0
BITMAP
FC7E
FC7E
FC7E
0000
0000
0000
1FF0
1FF0
1FF0
FC7E
FC7E
FC7E
FFFE
FFFE
FFFE
FC7E
FC7E
FC7E
FC7E
FC7E
FC7E
ENDCHAR
STARTCHAR 00E5
ENCODING 229
SWIDTH 875 0
DWIDTH 21 0
BBX 15 24 3 0
BITMAP
FC7E
FC7E
FC7E
1FF0
1FF0
1FF0
0000
0000
0000
1FF0
1FF0
1FF0
FC7E
FC7E
FC7E
FFFE
FFFE
FFFE
FC7E
FC7E
FC7E
FC7E
FC7E
FC7E
ENDCHAR
STARTCHAR 00E6
ENCODING 230
SWIDTH 1000 0
DWIDTH 24 0
BBX 18 15 3 0
BITMAP
1FFFC0
1FFFC0
1FFFC0
FFF000
FFF000
FFF000
FFFFC0
FFFFC0
FFFFC0
FFF000
FFF000
FFF000
FFFFC0
FFFFC0
FFFFC0
ENDCHAR
STARTCHAR 00E7
ENCODING 231
SWIDTH 875 0
DWIDTH 21 0
BBX 15 21 3 -6
BITMAP
1FF0
1FF0
1FF0
FC7E
FC7E
FC7E
FC00
FC00
FC00
FC7E
FC7E
FC7E
1FF0
1FF0
1FF0
1F80
1F80
1F80
FC00
FC00
FC00
ENDCHAR
STARTCHAR 00E8
ENCODING 232
SWIDTH 750 0
DWIDTH 18 0
BBX 12 24 3 0
BITMAP
FC00
FC00
FC00
1F80
1F80
1F80
0000
0000
0000
FFF0
FFF0
FFF0
FC00
FC00
FC00
FFF0
FFF0
FFF0
FC00
FC00
FC00
FFF0
FFF0
FFF0
ENDCHAR
STARTCHAR 00E9
ENCODING 233
SWIDTH 750 0
DWIDTH 18 0
BBX 12 24 3 0
BITMAP
03F0
03F0
03F0
1F80
1F80
1F80
0000
0000
0000
FFF0
FFF0
FFF0
FC00
FC00
FC00
FFF0
FFF0
FFF0
FC00
FC00
FC00
FFF0
FFF0
FFF0
ENDCHAR
STARTCHAR 00EA
ENCODING 234
SWIDTH 750 0
DWIDTH 18 0
BBX 12 24 3 0
BITMAP
1F80
1F80
1F80
FFF0
FFF0
FFF0
0000
0000
0000
FFF0
FFF0
FFF0
FC00
FC00
FC00
FFF0
FFF0
FFF0
FC00
FC00
FC00
FFF0
FFF0
FFF0
ENDCHAR
STARTCHAR 00EB
ENCODING 235
SWIDTH 750 0
DWIDTH 18 0
BBX 12 21 3 0
BITMAP
FFF0
FFF0
FFF0
0000
0000
0000
FFF0
FFF0
FFF0
FC00
FC00
FC00
FFF0
FFF0
FFF0
FC00
FC00
FC00
FFF0
FFF0
FFF0
ENDCHAR
STARTCHAR 00EC
ENCODING 236
SWIDTH 500 0
DWIDTH 12 0
BBX 9 24 0 0
BITMAP
FC00
FC00
FC00
1F80
1F80
1F80
0000
0000
0000
1F80
1F80
1F80
1F80
1F80
1F80
1F80
1F80
1F80
1F80
1F80
1F80
1F80
1F80
1F80
ENDCHAR
STARTCHAR 00ED
ENCODING 237
SWIDTH 500 0
DWIDTH 12 0
BBX 9 24 3 0
BITMAP
1F80
1F80
1F80
FC00
FC00
FC00
0000
0000
0000
FC00
FC00
FC00
FC00
FC00
FC00
FC00
FC00
FC00
FC00
FC00
FC00
FC00
FC00
FC00
ENDCHAR
STARTCHAR 00EE
ENCODING 238
SWIDTH 500 0
DWIDTH 12 0
BBX 12 24 0 0
BITMAP
1F80
1F80
1F80
FFF0
FFF0
FFF0
0000
0000
0000
1F80
1F80
1F80
1F80
1F80
1F80
1F80
1F80
1F80
1F80
1F80
1F80
1F80
1F80
1F80
ENDCHAR
STARTCHAR 00EF
ENCODING 239
SWIDTH 500 0
DWIDTH 12 0
BBX 12 21 0 0
BITMAP
FFF0
FFF0
FFF0
0000
0000
0000
1F80
1F80
1F80
1F80
1F80
1F80
1F80
1F80
1F80
1F80
1F80
1F80
1F80
1F80
1F80
ENDCHAR
STARTCHAR 00F0
ENCODING 240
SWIDTH 1000 0
DWIDTH 24 0
BBX 18 15 3 0
BITMAP
1FFE00
1FFE00
1FFE00
1F8FC0
1F8FC0
1F8FC0
FFFFC0
FFFFC0
FFFFC0
1F8FC0
1F8FC0
1F8FC0
1FFE00
1FFE00
1FFE00
ENDCHAR
STARTCHAR 00F1
ENCODING 241
SWIDTH 1000 0
DWIDTH 24 0
BBX 18 24 3 0
BITMAP
03FFC0
03FFC0
03FFC0
1FFE00
1FFE00
1FFE00
000000
000000
000000
FC0FC0
FC0FC0
FC0FC0
FF8FC0
FF8FC0
FF8FC0
FFFFC0
FFFFC0
FFFFC0
FC7FC0
FC7FC0
FC7FC0
FC0FC0
FC0FC0
FC0FC0
ENDCHAR
STARTCHAR 00F2
ENCODING 242
SWIDTH 875 0
DWIDTH 21 0
BBX 15 24 3 0
BITMAP
1F80
1F80
1F80
03F0
03F0
03F0
0000
0000
0000
1FF0
1FF0
1FF0
FC7E
FC7E
FC7E
FC7E
FC7E
FC7E
FC7E
FC7E
FC7E
1FF0
1FF0
1FF0
ENDCHAR
STARTCHAR 00F3
ENCODING 243
SWIDTH 875 0
DWIDTH 21 0
BBX 15 24 3 0
BITMAP
03F0
03F0
03F0
1F80
1F80
1F80
0000
0000
0000
1FF0
1FF0
1FF0
FC7E
FC7E
FC7E
FC7E
FC7E
FC7E
FC7E
FC7E
FC7E
1FF0
1FF0
1FF0
ENDCHAR
STARTCHAR 00F4
ENCODING 244
SWIDTH 875 0
DWIDTH 21 0
BBX 15 24 3 0
BITMAP
1FF0
1FF0
1FF0
FC7E
FC7E
FC7E
0000
0000
0000
1FF0
1FF0
1FF0
FC7E
FC7E
FC7E
FC7E
FC7E
FC7E
FC7E
FC7E
FC7E
1FF0
1FF0
1FF0
ENDCHAR
STARTCHAR 00F5
ENCODING 245
SWIDTH 875 0
DWIDTH 21 0
BBX 15 24 3 0
BITMAP
1FFE
1FFE
1FFE
FFF0
FFF0
FFF0
0000
0000
0000
1FF0
1FF0
1FF0
FC7E
FC7E
FC7E
FC7E
FC7E
FC7E
FC7E
FC7E
FC7E
1FF0
1FF0
1FF0
ENDCHAR
STARTCHAR 00F6
ENCODING 246
SWIDTH 875 0
DWIDTH 21 0
BBX 15 21 3 0
BITMAP
FC7E
FC7E
FC7E
0000
0000
0000
1FF0
1FF0
1FF0
FC7E
FC7E
FC7E
FC7E
FC7E
FC7E
FC7E
FC7E
FC7E
1FF0
1FF0
1FF0
ENDCHAR
STARTCHAR 00F7
ENCODING 247
SWIDTH 750 0
DWIDTH 18 0
BBX 12 15 3 0
BITMAP
1F80
1F80
1F80
0000
0000
0000
FFF0
FFF0
FFF0
0000
0000
0000
1F80
1F80
1F80
ENDCHAR
STARTCHAR 00F8
ENCODING 248
SWIDTH 1000 0
DWIDTH 24 0
BBX 18 15 3 0
BITMAP
1FFE00
1FFE00
1FFE00
FC7FC0
FC7FC0
FC7FC0
FFFFC0
FFFFC0
FFFFC0
FF8FC0
FF8FC0
FF8FC0
1FFE00
1FFE00
1FFE00
ENDCHAR
STARTCHAR 00F9
ENCODING 249
SWIDTH 875 0
DWIDTH 21 0
BBX 15 24 3 0
BITMAP
1F80
1F80
1F80
03F0
03F0
03F0
0000
0000
0000
FC7E
FC7E
FC7E
FC7E
FC7E
FC7E
FC7E
FC7E
FC7E
FC7E
FC7E
FC7E
1FF0
1FF0
1FF0
ENDCHAR
STARTCHAR 00FA
ENCODING 250
SWIDTH 875 0
DWIDTH 21 0
BBX 15 24 3 0
BITMAP
03F0
03F0
03F0
1F80
1F80
1F80
0000
0000
0000
FC7E
FC7E
FC7E
FC7E
FC7E
FC7E
FC7E
FC7E
FC7E
FC7E
FC7E
FC7E
1FF0
1FF0
1FF0
ENDCHAR
STARTCHAR 00FB
ENCODING 251
SWIDTH 875 0
DWIDTH 21 0
BBX 15 24 3 0
BITMAP
1FF0
1FF0
1FF0
FC7E
FC7E
FC7E
0000
0000
0000
FC7E
FC7E
FC7E
FC7E
FC7E
FC7E
FC7E
FC7E
FC7E
FC7E
FC7E
FC7E
1FF0
1FF0
1FF0
ENDCHAR
STARTCHAR 00FC
ENCODING 252
SWIDTH 875 0
DWIDTH 21 0
BBX 15 21 3 0
BITMAP
FC7E
FC7E
FC7E
0000
0000
0000
FC7E
FC7E
FC7E
FC7E
FC7E
FC7E
FC7E
FC7E
FC7E
FC7E
FC7E
FC7E
1FF0
1FF0
1FF0
ENDCHAR
STARTCHAR 00FD
ENCODING 253
SWIDTH 1000 0
DWIDTH 24 0
BBX 18 24 3 0
BITMAP
007E00
007E00
007E00
03F000
03F000
03F000
000000
000000
000000
FC0FC0
FC0FC0
FC0FC0
1FFE00
1FFE00
1FFE00
03F000
03F000
03F000
03F000
03F000
03F000
03F000
03F000
03F000
ENDCHAR
STARTCHAR 00FE
ENCODING 254
SWIDTH 750 0
DWIDTH 18 0
BBX 12 15 3 0
BITMAP
FC00
FC00
FC00
FF80
FF80
FF80
FFF0
FFF0
FFF0
FF80
FF80
FF80
FC00
FC00
FC00
ENDCHAR
STARTCHAR 00FF
ENCODING 255
SWIDTH 1000 0
DWIDTH 24 0
BBX 18 21 3 0
BITMAP
1FFE00
1FFE00
1FFE00
000000
000000
000000
FC0FC0
FC0FC0
FC0FC0
1FFE00
1FFE00
1FFE00
03F000
03F000
03F000
03F000
03F000
03F000
03F000
03F000
03F000
ENDCHAR
STARTCHAR 0152
ENCODING 338
SWIDTH 1000 0
DWIDTH 24 0
BBX 18 15 3 0
BITMAP
1FFFC0
1FFFC0
1FFFC0
FFF000
FFF000
FFF000
FFFFC0
FFFFC0
FFFFC0
FFF000
FFF000
FFF000
1FFFC0
1FFFC0
1FFFC0
ENDCHAR
STARTCHAR 0153
ENCODING 339
SWIDTH 1000 0
DWIDTH 24 0
BBX 18 15 3 0
BITMAP
1FFFC0
1FFFC0
1FFFC0
FFF000
FFF000
FFF000
FFFFC0
FFFFC0
FFFFC0
FFF000
FFF000
FFF000
1FFFC0
1FFFC0
1FFFC0
ENDCHAR
STARTCHAR 0160
ENCODING 352
SWIDTH 875 0
DWIDTH 21 0
BBX 15 24 3 0
BITMAP
FC7E
FC7E
FC7E
1FF0
1FF0
1FF0
0000
0000
0000
1FFE
1FFE
1FFE
FC00
FC00
FC00
1FF0
1FF0
1FF0
007E
007E
007E
FFF0
FFF0
FFF0
ENDCHAR
STARTCHAR 0161
ENCODING 353
SWIDTH 875 0
DWIDTH 21 0
BBX 15 24 3 0
BITMAP
FC7E
FC7E
FC7E
1FF0
1FF0
1FF0
0000
0000
0000
1FFE
1FFE
1FFE
FC00
FC00
FC00
1FF0
1FF0
1FF0
007E
007E
007E
FFF0
FFF0
FFF0
ENDCHAR
STARTCHAR 0178
ENCODING 376
SWIDTH 1000 0
DWIDTH 24 0
BBX 18 21 3 0
BITMAP
1FFE00
1FFE00
1FFE00
000000
000000
000000
FC0FC0
FC0FC0
FC0FC0
1FFE00
1FFE00
1FFE00
03F000
03F000
03F000
03F000
03F000
03F000
03F000
03F000
03F000
ENDCHAR
STARTCHAR 017D
ENCODING 381
SWIDTH 750 0
DWIDTH 18 0
BBX 12 24 3 0
BITMAP
FFF0
FFF0
FFF0
1F80
1F80
1F80
0000
0000
0000
FFF0
FFF0
FFF0
03F0
03F0
03F0
1F80
1F80
1F80
FC00
FC00
FC00
FFF0
FFF0
FFF0
ENDCHAR
STARTCHAR 017E
ENCODING 382
SWIDTH 750 0
DWIDTH 18 0
BBX 12 24 3 0
BITMAP
FFF0
FFF0
FFF0
1F80
1F80
1F80
0000
0000
0000
FFF0
FFF0
FFF0
03F0
03F0
03F0
1F80
1F80
1F80
FC00
FC00
FC00
FFF0
FFF0
FFF0
ENDCHAR
STARTCHAR 0192
ENCODING 402
SWIDTH 1000 0
DWIDTH 24 0
BBX 18 18 3 -3
BITMAP
03FFC0
03FFC0
03FFC0
03F000
03F000
03F000
1FFE00
1FFE00
1FFE00
1F8000
1F8000
1F8000
1F8000
1F8000
1F8000
FC0000
FC0000
FC0000
ENDCHAR
STARTCHAR 02C6
ENCODING 710
SWIDTH 750 0
DWIDTH 18 0
BBX 12 6 3 12
BITMAP
1F80
1F80
1F80
FFF0
FFF0
FFF0
ENDCHAR
STARTCHAR 02DC
ENCODING 732
SWIDTH 875 0
DWIDTH 21 0
BBX 15 6 3 9
BITMAP
1FFE
1FFE
1FFE
FFF0
FFF0
FFF0
ENDCHAR
STARTCHAR 2013
ENCODING 8211
SWIDTH 875 0
DWIDTH 21 0
BBX 15 3 3 6
BITMAP
FFFE
FFFE
FFFE
ENDCHAR
STARTCHAR 2014
ENCODING 8212
SWIDTH 1125 0
DWIDTH 27 0
BBX 21 3 3 6
BITMAP
FFFFF8
FFFFF8
FFFFF8
ENDCHAR
STARTCHAR 2018
ENCODING 8216
SWIDTH 500 0
DWIDTH 12 0
BBX 6 6 3 9
BITMAP
FC
FC
FC
FC
FC
FC
ENDCHAR
STARTCHAR 2019
ENCODING 8217
SWIDTH 500 0
DWIDTH 12 0
BBX 6 6 3 9
BITMAP
FC
FC
FC
FC
FC
FC
ENDCHAR
STARTCHAR 201A
ENCODING 8218
SWIDTH 625 0
DWIDTH 15 0
BBX 9 6 3 -3
BITMAP
1F80
1F80
1F80
FC00
FC00
FC00
ENDCHAR
STARTCHAR 201C
ENCODING 8220
SWIDTH 750 0
DWIDTH 18 0
BBX 12 6 3 9
BITMAP
FFF0
FFF0
FFF0
FFF0
FFF0
FFF0
ENDCHAR
STARTCHAR 201D
ENCODING 8221
SWIDTH 750 0
DWIDTH 18 0
BBX 12 6 3 9
BITMAP
FFF0
FFF0
FFF0
FFF0
FFF0
FFF0
ENDCHAR
STARTCHAR 201E
ENCODING 8222
SWIDTH 750 0
DWIDTH 18 0
BBX 12 6 3 0
BITMAP
FFF0
FFF0
FFF0
FFF0
FFF0
FFF0
ENDCHAR
STARTCHAR 2020
ENCODING 8224
SWIDTH 750 0
DWIDTH 18 0
BBX 12 15 3 0
BITMAP
1F80
1F80
1F80
FFF0
FFF0
FFF0
1F80
1F80
1F80
1F80
1F80
1F80
1F80
1F80
1F80
ENDCHAR
STARTCHAR 2021
ENCODING 8225
SWIDTH 750 0
DWIDTH 18 0
BBX 12 15 3 0
BITMAP
1F80
1F80
1F80
FFF0
FFF0
FFF0
1F80
1F80
1F80
FFF0
FFF0
FFF0
1F80
1F80
1F80
ENDCHAR
STARTCHAR 2022
ENCODING 8226
SWIDTH 500 0
DWIDTH 12 0
BBX 6 3 3 6
BITMAP
FC
FC
FC
ENDCHAR
STARTCHAR 2026
ENCODING 8230
SWIDTH 1000 0
DWIDTH 24 0
BBX 18 3 3 0
BITMAP
FFFFC0
FFFFC0
FFFFC0
ENDCHAR
STARTCHAR 2030
ENCODING 8240
SWIDTH 1125 0
DWIDTH 27 0
BBX 21 15 3 0
BITMAP
FFFE00
FFFE00
FFFE00
FFFE00
FFFE00
FFFE00
03F000
03F000
03F000
1FFFF8
1FFFF8
1FFFF8
1FFFF8
1FFFF8
1FFFF8
ENDCHAR
STARTCHAR 2039
ENCODING 8249
SWIDTH 625 0
DWIDTH 15 0
BBX 9 9 3 3
BITMAP
1F80
1F80
1F80
FC00
FC00
FC00
1F80
1F80
1F80
ENDCHAR
STARTCHAR 203A
ENCODING 8250
SWIDTH 625 0
DWIDTH 15 0
BBX 9 9 3 3
BITMAP
FC00
FC00
FC00
1F80
1F80
1F80
FC00
FC00
FC00
ENDCHAR
STARTCHAR 20AC
ENCODING 8364
SWIDTH 1000 0
DWIDTH 24 0
BBX 18 15 3 0
BITMAP
03FE00
03FE00
03FE00
1F8FC0
1F8FC0
1F8FC0
FFF000
FFF000
FFF000
1F8FC0
1F8FC0
1F8FC0
03FE00
03FE00
03FE00
ENDCHAR
STARTCHAR 2122
ENCODING 8482
SWIDTH 1250 0
DWIDTH 30 0
BBX 24 9 3 9
BITMAP
FFFE3F
FFFE3F
FFFE3F
1C71C7
1C71C7
1C71C7
1C71C7
1C71C7
1C71C7
ENDCHAR
ENDFONT
